<mxfile host="app.diagrams.net" modified="2023-02-28T08:46:50.582Z" agent="5.0 (Windows NT 10.0; Win64; x64) AppleWebKit/537.36 (KHTML, like Gecko) Chrome/100.0.4896.127 Safari/537.36" etag="eXbcKJ2UjT_xRyHMwlNs" version="20.8.23" type="github">
  <diagram name="第 1 页" id="JOiBaCDqJavDAp5jNfNz">
    <mxGraphModel dx="1430" dy="737" grid="1" gridSize="10" guides="1" tooltips="1" connect="1" arrows="1" fold="1" page="1" pageScale="1" pageWidth="827" pageHeight="1169" math="0" shadow="0">
      <root>
        <mxCell id="0" />
        <mxCell id="1" parent="0" />
        <mxCell id="wMq79IM0E_F1ZLYgunTB-1" value="" style="rounded=1;whiteSpace=wrap;html=1;dashed=1;" vertex="1" parent="1">
          <mxGeometry x="120" y="275" width="490" height="130" as="geometry" />
        </mxCell>
        <mxCell id="wMq79IM0E_F1ZLYgunTB-2" value="&lt;font style=&quot;font-size: 14px;&quot;&gt;数据接收&lt;/font&gt;" style="rounded=1;whiteSpace=wrap;html=1;" vertex="1" parent="1">
          <mxGeometry x="160" y="320" width="110" height="40" as="geometry" />
        </mxCell>
        <mxCell id="wMq79IM0E_F1ZLYgunTB-3" value="&lt;span style=&quot;font-size: 14px;&quot;&gt;地址学习&lt;/span&gt;" style="rounded=1;whiteSpace=wrap;html=1;" vertex="1" parent="1">
          <mxGeometry x="304" y="320" width="110" height="40" as="geometry" />
        </mxCell>
        <mxCell id="wMq79IM0E_F1ZLYgunTB-4" value="&lt;font style=&quot;font-size: 14px;&quot;&gt;数据发送&lt;/font&gt;" style="rounded=1;whiteSpace=wrap;html=1;" vertex="1" parent="1">
          <mxGeometry x="450" y="320" width="110" height="40" as="geometry" />
        </mxCell>
        <mxCell id="wMq79IM0E_F1ZLYgunTB-5" value="&lt;font style=&quot;font-size: 14px;&quot;&gt;队列调度&lt;/font&gt;" style="rounded=1;whiteSpace=wrap;html=1;" vertex="1" parent="1">
          <mxGeometry x="304" y="450" width="110" height="40" as="geometry" />
        </mxCell>
      </root>
    </mxGraphModel>
  </diagram>
</mxfile>
